<?xml version="1.0" standalone="no"?>
<!DOCTYPE svg PUBLIC "-//W3C//DTD SVG 20010904//EN"
 "http://www.w3.org/TR/2001/REC-SVG-20010904/DTD/svg10.dtd">
<svg version="1.0" xmlns="http://www.w3.org/2000/svg"
 width="800.000000pt" height="800.000000pt" viewBox="0 0 800.000000 800.000000"
 preserveAspectRatio="xMidYMid meet">
<metadata>
Created by potrace 1.14, written by Peter Selinger 2001-2017
</metadata>
<g transform="translate(0.000000,800.000000) scale(0.100000,-0.100000)"
fill="#000000" stroke="none">
<path d="M443 7213 c-2 -510 -4 -1015 -3 -1045 l0 -28 100 0 c73 0 100 3 101
13 47 457 210 775 493 960 118 77 174 101 331 142 80 21 151 34 265 49 19 3
86 8 148 11 l112 7 1 -59 c0 -32 1 -890 1 -1908 0 -1645 -2 -1861 -16 -1947
-31 -187 -83 -275 -199 -335 -64 -32 -200 -61 -324 -69 -54 -3 -107 -7 -118
-8 -18 -3 -20 -11 -22 -89 l-1 -87 1249 0 1249 0 0 85 c0 60 -4 87 -12 90 -7
2 -65 6 -128 9 -124 6 -144 9 -235 32 -81 20 -153 56 -193 95 -42 41 -85 127
-100 199 -6 30 -15 69 -19 85 -4 17 -9 902 -10 1969 l-3 1939 115 -7 c64 -4
123 -9 133 -11 9 -1 45 -6 80 -10 50 -5 182 -33 284 -59 48 -13 162 -68 227
-110 259 -169 436 -490 502 -909 l12 -78 101 3 101 3 -2 375 c-1 206 -2 522
-2 703 l-1 327 -2108 0 -2107 0 -2 -337z"/>
<path d="M3557 5263 c-3 -5 -5 -45 -4 -90 l0 -83 41 -1 c23 0 48 -2 56 -3 17
-4 127 -17 135 -17 23 0 181 -51 207 -67 102 -64 158 -161 175 -302 4 -30 7
-851 7 -1825 l0 -1770 -23 -74 c-63 -206 -195 -287 -506 -307 -38 -3 -76 -7
-82 -9 -9 -3 -12 -30 -12 -90 l1 -85 1259 0 1259 0 0 89 0 88 -77 1 c-233 3
-410 34 -516 89 -67 34 -138 134 -152 212 -3 19 -9 39 -13 45 -4 6 -8 409 -8
894 l-1 884 111 -6 c457 -25 685 -172 826 -533 57 -144 102 -327 126 -504 l6
-45 89 -1 89 0 0 1183 0 1184 -87 -3 -87 -2 -8 -30 c-4 -16 -23 -95 -43 -174
-43 -174 -90 -304 -157 -432 -52 -100 -69 -124 -143 -201 -74 -75 -235 -147
-385 -172 -87 -14 -112 -16 -218 -20 -109 -4 -112 -4 -116 17 -10 45 2 1702
11 1737 44 158 141 195 510 193 268 -2 395 -15 673 -69 59 -12 210 -68 284
-106 63 -33 102 -63 178 -139 53 -53 106 -114 118 -136 11 -21 36 -63 54 -93
70 -119 143 -319 186 -507 13 -54 24 -104 26 -110 2 -9 29 -13 89 -13 l85 0 0
38 c1 51 1 1288 0 1335 l0 37 -1979 0 c-1089 0 -1982 -3 -1984 -7z"/>
</g>
</svg>
